<?xml version="1.0" encoding="UTF-8" standalone="no"?>
<!-- Created with Inkscape (http://www.inkscape.org/) -->

<svg
   width="38.96mm"
   height="18.11mm"
   viewBox="0 0 155.85303 72.435478"
   version="1.1"
   id="svg1"
   xmlns="http://www.w3.org/2000/svg"
   xmlns:svg="http://www.w3.org/2000/svg">
  <defs
     id="defs1" />
  <g
     id="layer1"
     transform="translate(-31.129328,-54.886562)">
    <path
       d="m 36.19155,64.886984 v 0.164331 l 0.08268,-0.08165 z m 0.790133,0.790132 -0.790133,0.777214 v 8.43256 l 0.397392,0.397392 0.602547,-0.584461 V 67.30079 l 3.75636,3.75636 0.243396,-0.236162 v -0.93431 z m 40.209948,0.623735 -1.000455,0.999939 v 5.16e-4 6.869865 l 1.000455,-0.969966 z m -34.657833,4.927864 -0.342614,0.33228 v 0.73949 l 2.306319,2.306319 0.717785,-0.696082 z m 34.657833,3.340882 -1.000455,0.969966 v 5.569169 l 1.000455,-0.970483 z m -31.188277,0.129191 -0.717786,0.696081 0.905888,0.905888 V 74.88689 Z m 1.188041,1.187524 v 1.414384 l 0.75706,0.75706 0.717786,-0.696598 z m -10.613305,0.801502 -0.38654,0.374654 v 5.599141 l 0.999939,-0.96945 v -4.390946 z m 12.795601,1.380794 -0.718303,0.696081 3.111955,3.111955 0.717786,-0.696081 z m 27.81794,3.432349 -1.000455,0.969966 v 6.747909 l 1.000455,-0.969967 z m -23.998535,0.387056 -0.718302,0.696082 3.509863,3.509346 0.706933,-0.706934 z m -16.001607,1.161169 -0.999939,0.96945 v 5.814116 l 0.999939,-0.96945 z m 40.000142,6.59288 -1.000455,0.970483 v 7.199561 l 1.000455,-0.969967 z m -40.000142,0.594279 -0.999939,0.969966 v 5.093229 l 0.999939,-0.969966 z m 0,6.486942 -0.999939,0.96945 v 4.642097 l 0.999939,-0.96945 z m 40.000142,1.492416 -1.000455,0.970483 v 7.434168 l 1.000455,-0.96996 z m -40.000142,4.511871 -0.999939,0.96945 v 5.37745 l 0.999939,-0.96997 z m 40.000142,4.29638 -1.000455,0.97048 v 7.47965 l 1.000455,-0.96997 z m -40.000142,2.44946 -0.999939,0.96945 v 5.65082 h 0.999939 z"
       style="fill:#06B6D4;baseline-shift:baseline;display:inline;overflow:visible;opacity:1;vector-effect:none;enable-background:accumulate;stop-color:#000000;stop-opacity:1"
       id="path266" />
    <path
       d="m 112.63236,100.28637 c -1.35801,-0.0289 -2.70262,0.27364 -3.94859,0.81132 -0.39741,0.63796 -0.82703,1.2569 -1.29915,1.85054 1.8038,-1.21849 3.9976,-1.89234 6.09575,-1.5906 1.24776,0.17944 2.44978,0.69676 3.50573,1.42575 0.76397,0.52741 1.45578,1.16452 2.07739,1.87172 l 0.71882,-0.69712 c -0.65941,-0.74599 -1.39934,-1.42693 -2.22777,-1.99884 -0.70315,-0.48543 -1.46974,-0.88974 -2.27996,-1.17926 l -0.44132,0.50282 -0.39119,-0.34262 -0.39222,-0.34261 0.11678,-0.13333 c -0.17977,-0.0384 -0.36089,-0.0709 -0.54363,-0.0971 -0.33026,-0.0475 -0.66073,-0.0736 -0.99064,-0.0806 z m 42.66252,1.69809 c -1.33701,0.0259 -2.63821,0.42546 -3.78892,1.06247 -0.0977,0.0541 -0.19435,0.11007 -0.28991,0.16743 -0.0605,0.0739 -0.12119,0.14735 -0.1819,0.22066 -0.31633,0.60532 -0.61498,1.22545 -0.9064,1.85157 0.56953,-0.52908 1.19165,-0.99346 1.86242,-1.36478 1.02546,-0.56767 2.17446,-0.91515 3.32434,-0.93741 0.84756,-0.0164 1.70082,0.14405 2.50941,0.44132 l -0.65629,-0.56534 0.47387,-0.54881 c -0.75758,-0.22427 -1.54835,-0.34253 -2.34662,-0.32711 z m 3.39565,0.71314 -0.68781,0.79633 c 0.20301,0.0803 0.40297,0.16925 0.59893,0.26613 1.02833,0.50843 1.95578,1.23429 2.76159,2.07998 1.61293,1.69279 2.73094,3.84053 3.77341,6.02702 0.48717,1.02178 0.97134,2.06224 1.49552,3.08715 l 0.71107,-0.80047 c -0.4464,-0.89197 -0.86941,-1.806 -1.30432,-2.71818 -0.82061,-1.72115 -1.70404,-3.46795 -2.88096,-5.02191 l -0.25476,0.24701 -0.32505,-0.33434 -0.32504,-0.33435 0.31729,-0.30748 c -0.15578,-0.18143 -0.31662,-0.35956 -0.48266,-0.53381 -0.87271,-0.91591 -1.88985,-1.71721 -3.04271,-2.2872 -0.11679,-0.0577 -0.23507,-0.11312 -0.3545,-0.16588 z m -53.9011,1.13894 c -0.40177,0.41219 -0.77887,0.84683 -1.13378,1.29863 0.28226,-0.20151 0.55726,-0.41303 0.82424,-0.63407 0.10173,-0.22211 0.20487,-0.44362 0.30954,-0.66456 z m 15.59491,0.84801 -0.70073,0.67955 -0.19327,-0.19895 c 0.0874,0.10961 0.1735,0.22062 0.25787,0.33279 1.13322,1.50666 1.98968,3.2178 2.79362,4.98161 l 0.76223,-0.73897 c -6e-5,-1.5e-4 7e-5,-3.8e-4 0,-5.2e-4 -0.77302,-1.67763 -1.62467,-3.33755 -2.75745,-4.84363 -0.0534,-0.071 -0.1076,-0.14165 -0.16227,-0.21188 z m 28.12852,1.72651 c -0.53748,0.59449 -1.13142,1.1437 -1.78439,1.62006 -0.77359,1.30735 -1.40975,2.6881 -2.02726,4.04316 -0.19568,0.42939 -0.39075,0.85846 -0.58912,1.28468 0.39467,-0.36693 0.76413,-0.76495 1.10846,-1.18494 1.38343,-1.68737 2.35175,-3.70702 3.29231,-5.76296 z m -45.498,0.33022 c -0.24521,0.14305 -0.49418,0.27962 -0.74672,0.40927 -0.26667,0.43874 -0.51892,0.88496 -0.7581,1.33481 0.0148,-0.016 0.0297,-0.032 0.0444,-0.0481 0.50083,-0.54535 0.98736,-1.11181 1.46038,-1.69602 z m -0.67696,2.32079 c -0.0156,0.0171 -0.0314,0.0341 -0.047,0.0512 -0.60111,0.65454 -1.25921,1.2544 -1.96319,1.79368 -0.746092,1.63811 -1.424832,3.29902 -2.170407,4.8948 0.151641,-0.15059 0.299869,-0.30459 0.444417,-0.46199 0.848894,-0.92436 1.56663,-1.94644 2.20555,-3.03186 0.48354,-1.1068 0.97931,-2.19852 1.53066,-3.24579 z m 21.3682,1.56476 -0.61598,0.59738 -0.39481,-0.40566 c 0.25862,0.57348 0.51333,1.15126 0.77153,1.72857 1.10662,2.47427 2.32393,5.00816 4.24419,7.04867 0.96096,1.02115 2.09491,1.90585 3.3848,2.51147 1.29156,0.60641 2.73683,0.92303 4.18166,0.81081 1.33072,-0.10335 2.60677,-0.5669 3.72639,-1.25212 1.11836,-0.68446 2.07936,-1.58358 2.89646,-2.58021 1.28178,-1.56337 2.20234,-3.34378 3.03754,-5.13095 -0.55292,0.53136 -1.15809,1.01225 -1.81746,1.41852 -0.5806,1.09578 -1.22285,2.13974 -1.99367,3.07991 -0.75992,0.92688 -1.64318,1.74714 -2.64635,2.3611 -1.00193,0.6132 -2.1323,1.01817 -3.28146,1.10742 -0.94416,0.0734 -1.90683,-0.0668 -2.81895,-0.37413 l -0.22996,0.22272 -0.41806,-0.43046 -0.0724,-0.0744 c -0.0469,-0.0209 -0.0936,-0.0423 -0.14004,-0.0641 -1.15428,-0.54194 -2.1904,-1.34609 -3.07992,-2.29133 -0.45148,-0.47976 -0.86458,-0.99383 -1.24747,-1.53375 l -0.28112,0.27285 -0.3483,-0.35864 -0.34881,-0.35811 0.41444,-0.40205 c -0.86237,-1.37347 -1.57182,-2.8763 -2.24947,-4.39146 -0.22403,-0.5009 -0.44649,-1.00624 -0.67283,-1.51205 z m 42.9302,4.33617 c 0.59687,1.16636 1.24784,2.31201 2.04536,3.38067 1.50487,2.01652 3.58323,3.76334 6.11538,4.33203 0.26986,0.0606 0.54097,0.10771 0.81442,0.14056 l 0.11886,-0.99373 c -0.24076,-0.0289 -0.47864,-0.0684 -0.71468,-0.12144 -2.21605,-0.49769 -4.12731,-2.07118 -5.533,-3.9548 -0.61737,-0.82727 -1.15249,-1.71673 -1.64744,-2.64067 l -0.45734,0.51418 -0.37414,-0.33176 z m -67.611376,1.38389 c -0.623505,0.63885 -1.303078,1.22101 -2.02675,1.7415 -0.709494,1.27081 -1.5129,2.46471 -2.490287,3.52898 -2.492337,2.7139 -6.065486,4.42874 -9.742041,4.67362 -1.299825,0.0866 -2.61154,-0.0104 -3.889168,-0.27647 l -0.523999,0.50798 -0.424781,-0.43719 -0.410827,-0.42219 c -1.54e-4,-5e-5 -3.63e-4,5e-5 -5.17e-4,0 -1.329123,-0.4107 -2.601037,-1.00729 -3.760494,-1.77147 l -0.255798,0.24805 -0.746208,-0.7674 0.116789,-0.11369 c -0.129343,-0.1003 -0.256684,-0.20266 -0.382406,-0.30747 -0.81592,-0.68019 -1.554318,-1.45387 -2.200899,-2.29857 l -0.09612,0.0935 v 0.34779 h -0.823206 c 0.719969,0.96707 1.551198,1.85082 2.479435,2.62464 3.034063,2.52933 7.043003,3.83283 10.984343,3.57033 3.941339,-0.26251 7.740448,-2.08465 10.412284,-4.99401 1.623304,-1.76762 2.778499,-3.82018 3.780648,-5.94796 z"
       style="fill:#06B6D4;baseline-shift:baseline;display:inline;overflow:visible;opacity:1;vector-effect:none;enable-background:accumulate;stop-color:#000000;stop-opacity:1"
       id="path265" />
    <path
       d="m 116.7241,94.00872 c -1.84684,-0.03925 -3.66852,0.534406 -5.25084,1.479496 -0.25463,0.588679 -0.51152,1.177717 -0.77773,1.762684 0.0819,-0.06661 0.16438,-0.131957 0.24805,-0.196371 1.89381,-1.45804 4.31825,-2.3068 6.62853,-1.974556 0.37236,0.05355 0.74097,0.136831 1.10278,0.247013 l 0.71623,-0.815971 c -0.54126,-0.194879 -1.10222,-0.338592 -1.67638,-0.421163 -0.33026,-0.04749 -0.66078,-0.07412 -0.99064,-0.08113 z m 3.67368,0.933277 -0.68523,0.781347 c 0.47588,0.218804 0.93413,0.481746 1.36736,0.780831 1.05712,0.729795 1.97618,1.671715 2.7621,2.71663 0.11638,0.154724 0.22977,0.311388 0.34055,0.470256 l 0.72657,-0.70435 c -0.0878,-0.123435 -0.17733,-0.245915 -0.26872,-0.36742 -0.83713,-1.113005 -1.8271,-2.13356 -2.99206,-2.937805 -0.39752,-0.27443 -0.81578,-0.523051 -1.25057,-0.739489 z m 38.98884,0.765328 c -1.28341,0.02484 -2.53393,0.394033 -3.64991,0.987019 -0.31976,0.64018 -0.65848,1.273382 -1.0294,1.889808 0.43167,-0.354569 0.8902,-0.671327 1.3746,-0.939478 1.02545,-0.567673 2.17447,-0.915152 3.32434,-0.937411 0.89618,-0.01731 1.80008,0.162855 2.64997,0.49351 l 0.68936,-0.797884 c -1.05045,-0.457942 -2.19782,-0.717997 -3.35896,-0.695564 z m 4.32014,1.183907 -0.66662,0.771529 c 0.89129,0.493454 1.70009,1.149502 2.41484,1.899625 0.55038,0.577634 1.04321,1.208014 1.495,1.874824 l 0.73019,-0.70797 c -0.45105,-0.65197 -0.94621,-1.276356 -1.50069,-1.858284 -0.72645,-0.762404 -1.55162,-1.44393 -2.47272,-1.979724 z m -54.60028,0.4439 c -1.4542,1.428603 -2.59211,3.151478 -3.53209,4.928378 -0.38868,0.73477 -0.74908,1.48341 -1.0945,2.23759 0.20198,-0.16723 0.39927,-0.33978 0.59169,-0.51779 1.47124,-2.12891 2.80441,-4.393652 4.0349,-6.648178 z m 43.78647,1.58905 c -0.0983,0.105888 -0.19479,0.213183 -0.28938,0.321945 -0.64686,0.743759 -1.20462,1.544653 -1.70481,2.376603 0.30863,-0.25318 0.60325,-0.52585 0.88418,-0.81391 0.44066,-0.63295 0.82483,-1.265293 1.11001,-1.884638 z m -27.45,0.855762 -0.73381,0.711586 c 1.0297,1.65525 1.83019,3.48333 2.64687,5.31905 l 0.7643,-0.74104 c -0.79404,-1.78905 -1.60433,-3.6075 -2.67736,-5.289596 z m 42.75811,1.744076 -0.7369,0.71417 c 0.64932,1.06558 1.21712,2.20218 1.76423,3.34967 0.65442,1.37259 1.2936,2.7821 2.04949,4.13825 l 0.70538,-0.79427 c -0.65879,-1.21776 -1.24421,-2.49738 -1.8526,-3.77341 -0.58372,-1.2243 -1.19926,-2.46211 -1.9296,-3.63441 z m -17.16691,1.911 c -0.72521,0.87576 -1.45992,1.70669 -2.08669,2.47117 -0.14054,0.17141 -0.28538,0.33982 -0.4346,0.50487 -0.94056,2.05594 -1.90888,4.07559 -3.29231,5.76296 -0.75991,0.92688 -1.64317,1.74713 -2.64635,2.3611 -1.00192,0.61319 -2.13229,1.01817 -3.28145,1.10742 -0.27696,0.0215 -0.55566,0.0248 -0.83406,0.0109 l -0.93379,0.90537 c 0.6076,0.0988 1.22726,0.12974 1.8464,0.0816 1.33072,-0.10335 2.6047,-0.56637 3.72432,-1.2516 1.11836,-0.68446 2.08143,-1.58358 2.89853,-2.5802 1.63308,-1.99187 2.67814,-4.33583 3.70882,-6.59753 0.42767,-0.93848 0.85971,-1.87388 1.33118,-2.77606 z m -46.0375,2.3766 c -0.76199,1.03225 -1.56166,2.02749 -2.4045,2.96933 -1.08143,2.39694 -2.26497,4.67989 -3.990456,6.55877 -2.492338,2.7139 -6.067555,4.42927 -9.744108,4.67413 -0.598013,0.0398 -1.198342,0.0406 -1.79679,0.004 l -0.948262,0.91984 c 0.931497,0.11036 1.873126,0.13638 2.811198,0.0739 3.941341,-0.2625 7.742515,-2.08672 10.414351,-4.99607 2.696387,-2.9361 4.100497,-6.65799 5.658567,-10.20403 z m 23.52105,0.14986 -0.76275,0.74001 c 0.88199,1.94974 1.85383,3.91558 3.20342,5.63014 l 0.72141,-0.70021 c -1.30242,-1.68212 -2.2623,-3.66321 -3.16208,-5.66994 z m 43.98646,3.8902 -0.69556,0.78238 c 0.30024,0.48888 0.62023,0.96799 0.96686,1.43247 1.50487,2.01652 3.58117,3.76335 6.11332,4.33204 0.23277,0.0523 0.46722,0.0935 0.7028,0.12506 l 0.13281,-0.99064 c -0.2072,-0.0277 -0.41341,-0.0654 -0.61701,-0.11111 -2.21604,-0.49769 -4.12576,-2.06962 -5.53145,-3.95324 -0.38583,-0.51701 -0.7397,-1.05812 -1.07177,-1.61696 z m -40.18256,2.55127 -0.71727,0.69556 c 0.066,0.0732 0.13274,0.14606 0.2005,0.21808 0.96096,1.02113 2.09284,1.90584 3.38274,2.51147 0.31346,0.14717 0.63629,0.27742 0.96584,0.38861 l 0.82165,-0.79685 c -0.46637,-0.12293 -0.92325,-0.29025 -1.36167,-0.4961 -1.15428,-0.54195 -2.19091,-1.34559 -3.08043,-2.29081 -0.0714,-0.0758 -0.1419,-0.15247 -0.21136,-0.22996 z m -54.857634,3.23081 -0.718302,0.6966 c 0.378108,0.39111 0.777157,0.76205 1.195792,1.11104 0.531056,0.44271 1.091806,0.8481 1.676901,1.21388 l 0.741556,-0.71934 c -0.623841,-0.37476 -1.219021,-0.79622 -1.777669,-1.26194 -0.390951,-0.32591 -0.764371,-0.67362 -1.118278,-1.04024 z m 3.8778,2.8422 -0.758094,0.73536 c 1.269819,0.67256 2.631601,1.17009 4.035413,1.47588 l 0.876432,-0.85008 c -1.440797,-0.24604 -2.846831,-0.7067 -4.153751,-1.36116 z"
       style="fill:#06B6D4;baseline-shift:baseline;display:inline;overflow:visible;opacity:1;vector-effect:none;enable-background:accumulate;stop-color:#000000;stop-opacity:1"
       id="path264" />
    <path
       d="m 119.67741,87.106299 c -1.56171,-0.03344 -3.10534,0.370779 -4.50153,1.067635 -0.42214,0.609071 -0.81184,1.246174 -1.17409,1.898592 1.87795,-1.408856 4.25808,-2.221083 6.5257,-1.894974 1.16569,0.167639 2.29136,0.628789 3.2954,1.283125 l 0.6656,-0.758093 c -1.13947,-0.765056 -2.44144,-1.316838 -3.82044,-1.515153 -0.33026,-0.04749 -0.66079,-0.07407 -0.99064,-0.08113 z m 42.66458,1.698604 c -1.03981,0.02013 -2.05816,0.26629 -3.00085,0.674378 -0.91126,1.418755 -1.64305,2.98861 -2.36265,4.56768 -0.17247,0.378465 -0.34545,0.759042 -0.52141,1.139982 0.0287,-0.03306 0.0581,-0.06655 0.0879,-0.100769 0.52823,-0.607371 0.87667,-1.568396 1.28881,-2.474785 0.41214,-0.906389 0.91729,-1.710672 1.20354,-1.869136 1.02546,-0.567673 2.1724,-0.915152 3.32228,-0.937411 1.12489,-0.02173 2.26167,0.267371 3.28869,0.775147 0.4858,0.240189 0.94932,0.528659 1.38803,0.855245 l 0.65525,-0.75861 c -0.49963,-0.377532 -1.03328,-0.713076 -1.5999,-0.993221 -1.15418,-0.570644 -2.44175,-0.903767 -3.74964,-0.8785 z m -37.0148,0.520899 -0.6599,0.751892 c 0.79482,0.645424 1.5031,1.410514 2.12751,2.24069 0.71024,0.944279 1.31181,1.969058 1.85984,3.036507 l 0.75086,-0.728121 c -0.52942,-1.00673 -1.11785,-1.987297 -1.81178,-2.9099 -0.65757,-0.874262 -1.40962,-1.691056 -2.26653,-2.391068 z m -12.09797,0.07906 c -1.05776,0.838659 -1.60761,1.950529 -2.02623,3.071647 -0.42621,1.141454 -0.73548,2.308442 -1.28519,3.347599 -1.45184,2.744514 -3.04564,5.553732 -4.84622,8.159192 0.27908,-0.25818 0.54798,-0.5277 0.80512,-0.8077 3.2735,-3.564503 4.5957,-8.58278 6.9727,-13.076207 0.12306,-0.23263 0.2497,-0.464247 0.37982,-0.694531 z m 55.26743,1.941483 -0.65319,0.756543 c 0.1951,0.178234 0.38411,0.363695 0.56689,0.555522 1.2232,1.283754 2.16196,2.828981 2.99879,4.454508 l 0.74931,-0.72657 c -0.82504,-1.574467 -1.77426,-3.104467 -3.02566,-4.417818 -0.20417,-0.214273 -0.4164,-0.422125 -0.63614,-0.622185 z m -12.88603,3.288689 c -1.47367,1.700804 -1.70908,2.075944 -2.70423,4.259688 -0.2865,0.628705 -0.67582,1.271138 -1.12345,1.914098 0.24867,-0.25497 0.48636,-0.52231 0.71314,-0.79892 1.29585,-1.58055 2.22844,-3.454062 3.11454,-5.374866 z m -25.75967,0.870747 -0.75706,0.734323 c 0.49193,1.023752 0.94967,2.076348 1.41955,3.12694 0.34651,0.774756 0.70398,1.555156 1.09037,2.324406 l 0.75396,-0.73122 c -0.32416,-0.65773 -0.63124,-1.328427 -0.93224,-2.001424 -0.51138,-1.143379 -1.01437,-2.309067 -1.57458,-3.45302 z m 42.75036,1.751315 -0.75396,0.731221 c 0.11335,0.231676 0.2253,0.464055 0.33642,0.697115 1.00083,2.099178 1.96341,4.284258 3.36517,6.233728 l 0.68161,-0.76688 c -1.25352,-1.7954 -2.16902,-3.85027 -3.14451,-5.896279 -0.15851,-0.332444 -0.31979,-0.666027 -0.48473,-0.998905 z m -20.0086,4.151684 c -0.65879,0.69055 -1.39811,1.31194 -2.22157,1.81591 -0.12143,0.0743 -0.24453,0.14605 -0.36948,0.21497 l 0.092,0.0951 0.41858,0.4315 -4.94802,4.79764 c 0.16442,-0.0877 0.32623,-0.1805 0.48472,-0.2775 1.11837,-0.68446 2.08142,-1.58358 2.89853,-2.5802 1.09439,-1.33483 2.51782,-2.87179 3.64525,-4.4974 z m -19.79879,0.40669 -0.74827,0.72502 c 7e-5,1.3e-4 -7e-5,3.9e-4 0,5.2e-4 0.74822,1.3831 1.61578,2.70831 2.71198,3.87315 0.36557,0.38847 0.75562,0.757 1.16995,1.09812 l 0.72347,-0.70124 c -0.41156,-0.3318 -0.80046,-0.69548 -1.16479,-1.08263 -1.0791,-1.14668 -1.93843,-2.48763 -2.69234,-3.91294 z m -26.95598,2.8205 c -0.85756,0.80669 -1.80727,1.5127 -2.82308,2.1053 -0.47302,0.58422 -0.95955,1.15068 -1.46038,1.69602 -1.832082,1.99496 -4.248145,3.4502 -6.860041,4.17856 l -1.367875,1.32653 c 3.41212,-0.56109 6.621467,-2.27804 8.964306,-4.82916 1.27382,-1.38706 2.45071,-2.89827 3.54707,-4.47725 z m 71.00446,0.33383 -0.67283,0.75706 c 1.4596,1.77278 3.37884,3.25427 5.67201,3.76928 0.71289,0.16011 1.44366,0.21955 2.16834,0.19327 l -0.0372,-0.99787 c -0.64438,0.0234 -1.28699,-0.0321 -1.91048,-0.17208 -2.05565,-0.46168 -3.84896,-1.84791 -5.21983,-3.54966 z m -39.37021,2.43913 -0.73432,0.7121 c 0.4442,0.30327 0.91186,0.57424 1.4025,0.8046 1.29155,0.60641 2.73888,0.9251 4.18372,0.81287 0.19442,-0.0151 0.38758,-0.0376 0.57929,-0.0677 l 1.51464,-1.46916 c -0.69658,0.29177 -1.43024,0.48087 -2.17196,0.53847 -1.24723,0.0969 -2.52726,-0.17764 -3.67988,-0.71882 -0.37761,-0.17729 -0.74267,-0.38296 -1.09399,-0.61236 z m -56.280803,3.19722 -0.06873,0.0858 0.06873,-0.0667 z m 1.455725,0.001 -0.455786,0.44235 v 0.0444 h -0.04599 l -0.23151,0.2248 c 1.057877,0.73918 2.207813,1.34299 3.413745,1.79989 l 0.801499,-0.77718 c -1.230853,-0.42215 -2.406526,-1.00539 -3.481441,-1.73426 z m 4.660181,2.08515 -0.836125,0.8108 c 1.587741,0.46717 3.248539,0.68556 4.905127,0.63097 l 1.118795,-1.08521 c -0.227053,0.0264 -0.454564,0.0473 -0.682646,0.0625 -1.509757,0.10056 -3.035271,-0.0469 -4.505151,-0.41909 z"
       style="fill:#06B6D4;baseline-shift:baseline;display:inline;overflow:visible;opacity:1;vector-effect:none;enable-background:accumulate;stop-color:#000000;stop-opacity:1"
       id="path263" />
    <path
       d="m 123.99963,81.844605 c -2.30898,-0.04944 -4.57852,0.858203 -6.39031,2.253092 -2.06332,1.588549 -3.5704,3.753056 -4.75992,6.001701 -2.377,4.493427 -3.6992,9.511704 -6.9727,13.076202 -2.49234,2.71391 -6.065484,4.4272 -9.742039,4.67207 -3.124843,0.20811 -6.318059,-0.6441 -8.943123,-2.35438 v 0.60048 h -0.170016 l 0.135909,0.14056 -0.262516,0.25477 c 1.11475,0.69639 2.317211,1.25011 3.569291,1.64847 l 0.665593,-0.64543 0.373103,0.38447 0.373621,0.38499 -0.212907,0.2067 c 1.482558,0.34646 3.015092,0.47865 4.537708,0.37724 0.231571,-0.0154 0.462595,-0.0364 0.692981,-0.0625 h 5.16e-4 l 1.254704,-1.21698 0.42478,0.43822 0.387574,0.39946 c 2.915221,-0.74361 5.611521,-2.33116 7.651211,-4.55218 3.49495,-3.80564 4.81896,-8.933224 7.12101,-13.284978 1.15001,-2.173954 2.58337,-4.212468 4.48448,-5.676139 1.89382,-1.45804 4.31878,-2.308351 6.62906,-1.976107 1.23817,0.178062 2.43341,0.689067 3.4835,1.409216 l 0.34934,-0.398425 0.3917,0.343648 0.39223,0.343649 -0.30334,0.345198 c 0.72553,0.613869 1.37681,1.327053 1.95595,2.09703 0.86906,1.155452 1.57534,2.431518 2.22002,3.75946 l 0.078,-0.07545 0.32763,0.337447 0.32763,0.33848 -0.30799,0.29869 c 0.36447,0.789495 0.7153,1.591613 1.07332,2.392102 0.45407,1.015265 0.92655,2.040195 1.45882,3.037024 l 0.17673,-0.171049 0.31936,0.329179 h 5.2e-4 l 0.31936,0.329696 -0.35346,0.342614 c 0.65809,1.131479 1.41129,2.211015 2.32285,3.179655 0.54173,0.57566 1.13774,1.1081 1.78594,1.57148 l 0.64699,-0.62735 0.3483,0.35915 h 5.1e-4 l 0.3483,0.35966 -0.48007,0.46561 c 0.23839,0.13753 0.48292,0.26537 0.73329,0.38292 1.29155,0.60641 2.73837,0.9251 4.1832,0.81287 0.71682,-0.0557 1.41741,-0.21583 2.08618,-0.45889 l 0.9431,-0.91467 0.32607,0.33642 c 0.12496,-0.0689 0.24806,-0.14066 0.36949,-0.21498 1.11837,-0.68446 2.08143,-1.58564 2.89854,-2.58227 1.63308,-1.991864 2.67813,-4.333758 3.70881,-6.595463 1.03014,-2.260521 2.08499,-4.502164 3.65611,-6.308659 0.78491,-0.902498 1.696,-1.691383 2.72283,-2.25981 1.02545,-0.567674 2.17448,-0.913085 3.32435,-0.935344 1.1249,-0.02173 2.26166,0.265304 3.28869,0.77308 0.53597,0.264995 1.04454,0.589153 1.5229,0.958597 l 0.24701,-0.28577 0.39636,0.342614 0.39636,0.342098 -0.2434,0.282154 c 0.15151,0.142801 0.29902,0.289832 0.44287,0.4408 1.40276,1.472214 2.42943,3.288741 3.35897,5.175394 l 0.42788,-0.414961 0.32504,0.33538 0.32505,0.334863 -0.64957,0.629936 c 1.03256,2.167448 2.02954,4.42434 3.51089,6.417696 l 0.67903,-0.764295 c -1.33532,-1.84682 -2.28571,-3.985673 -3.30161,-6.116422 -1.05189,-2.20623 -2.20918,-4.457063 -3.95324,-6.287472 -0.87271,-0.915906 -1.8883,-1.716689 -3.04116,-2.286682 -1.15418,-0.570644 -2.44176,-0.902217 -3.74964,-0.876949 h -0.002 c -1.337,0.02588 -2.63822,0.423394 -3.78892,1.060401 -1.14931,0.636232 -2.14519,1.50406 -2.99258,2.478401 -1.69346,1.947166 -2.77786,4.282675 -3.81062,6.548954 -1.03223,2.265095 -2.05296,4.523803 -3.57394,6.378939 -0.75992,0.92687 -1.64318,1.74713 -2.64635,2.3611 -1.00193,0.61319 -2.1323,1.01817 -3.28146,1.10742 -1.24722,0.0969 -2.52725,-0.17919 -3.67988,-0.72037 -1.15428,-0.54195 -2.19039,-1.3461 -3.07991,-2.29133 -1.78072,-1.892229 -2.96251,-4.314119 -4.06074,-6.769613 -1.09882,-2.456853 -2.1585,-5.017216 -3.8318,-7.241935 -0.83715,-1.113002 -1.82711,-2.133559 -2.99207,-2.937805 -1.16614,-0.80505 -2.50869,-1.386715 -3.93361,-1.591634 -0.33025,-0.0475 -0.66078,-0.07407 -0.99064,-0.08113 z m 57.33552,18.070215 -0.67128,0.75499 c 1.43705,1.68097 3.29562,3.06752 5.49992,3.56258 0.2263,0.0508 0.45471,0.0918 0.68368,0.12299 l 0.13488,-0.99012 c -0.20137,-0.0275 -0.39947,-0.063 -0.59738,-0.10749 -1.97134,-0.44274 -3.70212,-1.73657 -5.04982,-3.34295 z"
       style="fill:#06B6D4;baseline-shift:baseline;display:inline;overflow:visible;opacity:1;vector-effect:none;enable-background:accumulate;stop-color:#000000;stop-opacity:1"
       id="path262" />
    <path
       d="m 31.191338,69.886678 v 0.08423 l 0.04237,-0.04186 z m 0,0.128675 v 17.495573 l 0.999939,-0.969967 v -5.599658 l -0.0863,0.08372 -0.3483,-0.358635 -0.348815,-0.358118 0.783414,-0.759643 v -7.24762 l 3.679362,3.679362 0.718303,-0.696081 -4.648295,-4.648295 -0.06925,0.06821 -0.350883,-0.356051 z m 41.000082,1.285709 -0.999939,0.999939 v 48.021879 l 0.999939,-0.96997 v -7.48068 l -0.22686,0.22014 -0.343648,-0.35347 -0.343648,-0.35295 0.914156,-0.88676 v -7.43521 l -0.22686,0.22014 -0.343648,-0.35346 -0.343648,-0.35295 0.914156,-0.88677 V 94.490861 L 71.974379,94.701184 71.62608,94.34255 71.277264,93.984432 72.19142,93.097665 V 86.244853 L 71.562001,85.597864 72.19142,84.987565 V 79.41788 l -0.171566,0.166398 -0.342098,-0.351917 -0.342615,-0.351916 0.856279,-0.830441 z m -34.734831,4.850867 -0.483691,0.468705 -0.15813,-0.162264 -0.236678,0.229444 2.84272,2.842203 0.717786,-0.696081 z m 3.359485,3.382739 -0.706417,0.684713 1.081588,1.081588 v -1.414384 l -0.2651,-0.2651 -0.01292,0.01292 z m 1.37511,1.351856 v 1.413867 l 0.870231,0.870748 0.124023,-0.120406 -0.187585,-0.192753 0.591178,-0.573609 z m 18.793168,0.207222 -9.292973,9.292973 -3.575493,-3.575492 -0.248563,0.240812 -0.348299,-0.358635 -0.327629,-0.33693 v 0.245463 l 0.21239,0.219108 -0.21239,0.206189 v 0.273369 l 4.499984,4.499983 9.999906,-9.999906 z m -16.507003,2.078943 -0.718303,0.696082 2.43241,2.431893 v -1.413868 z m 2.714046,2.714046 v 0.427364 l 0.217041,-0.210323 z m -16.000057,1.747697 v 7.047115 l 0.999939,-0.96945 v -5.814632 l -0.382922,0.371037 z m 0,7.078121 v 26.381337 h 0.999939 v -6.7722 l -0.272851,0.26459 -0.684713,-0.70384 0.957564,-0.92862 v -5.63687 l -0.551904,-0.5674 0.551904,-0.53537 v -4.64261 l -0.0863,0.0837 -0.3483,-0.35864 -0.348815,-0.35812 0.783414,-0.75964 v -5.094262 l -0.328145,0.318326 z m 40.000143,25.670267 v 0.71107 h 0.999939 v -0.34778 l -0.332797,0.32246 -0.348299,-0.35864 z"
       style="fill:#06B6D4;baseline-shift:baseline;display:inline;overflow:visible;opacity:1;vector-effect:none;enable-background:accumulate;stop-color:#000000;stop-opacity:1"
       id="path261" />
    <path
       d="m 41.191245,59.886772 v 0.24598 l 0.124023,-0.121957 z m 0.831473,0.831474 -0.831473,0.818038 v 9.284704 l 0.999939,-0.96945 v -7.55096 l 3.833357,3.833358 0.166915,-0.161747 v -1.085205 z m 40.168608,0.58291 -0.999939,0.999422 v 5.17e-4 7.021277 l 0.999939,-0.96945 z m -34.580835,5.004862 -0.419096,0.406694 v 0.588078 l 2.463416,2.463415 0.717785,-0.696081 z m 34.580835,3.415813 -0.999939,0.969449 v 5.568136 l 0.999939,-0.96945 z m -31.110763,0.05426 -0.717785,0.696081 2.66237,2.66237 0.717785,-0.696081 z m -8.889379,1.784904 -0.999939,0.96945 v 5.282881 l 0.999939,-0.969966 z m 12.2592,1.584916 -0.717786,0.696081 3.111438,3.111438 0.717786,-0.696081 z m 11.533663,2.94814 -4.292762,4.292762 -3.421496,-3.421497 -0.717786,0.696082 4.139282,4.139282 4.999695,-4.999695 z m 16.207279,0.559139 -0.999939,0.96945 v 6.747392 l 0.999939,-0.96945 z m -40.000142,1.742013 -0.999939,0.96945 v 5.619812 l 0.999939,-0.96945 z m 40.000142,6.399093 -0.999939,0.969449 v 7.199561 l 0.999939,-0.96945 z m -40.000142,0.594795 -0.999939,0.96945 v 5.092196 l 0.999939,-0.96945 z m 0,6.486426 -0.999939,0.96945 v 4.641577 l 0.999939,-0.969967 z m 40.000142,1.492932 -0.999939,0.96945 v 7.433651 l 0.999939,-0.96945 z m -40.000142,4.511353 -0.999939,0.96945 v 5.376418 l 0.999939,-0.96945 z m 40.000142,4.296898 -0.999939,0.96945 v 7.47913 l 0.999939,-0.96997 z m -40.000142,2.44894 -0.999939,0.96945 v 5.49889 h 0.999939 z m 40.000142,6.4239 -0.04599,0.0444 h 0.04599 z"
       style="fill:#06B6D4;baseline-shift:baseline;display:inline;overflow:visible;opacity:1;vector-effect:none;enable-background:accumulate;stop-color:#000000;stop-opacity:1"
       id="path260" />
    <path
       d="m 46.191456,54.88656 v 0.326595 l 0.164331,-0.162264 z m 41.000082,0 -20.500041,20.500041 -10.533724,-10.533724 -0.718303,0.696082 2.66237,2.662369 0.19482,-0.189135 0.3483,0.359151 0.348815,0.359668 -0.183968,0.178284 3.110922,3.110921 0.548287,-0.531234 0.348299,0.359151 h 5.17e-4 l 0.348299,0.359668 -0.536918,0.520899 4.062284,4.062284 19.500102,-19.500102 v 7.172689 l 0.165364,-0.160197 0.342098,0.352433 h 5.17e-4 l 0.342098,0.35295 -0.850077,0.82424 v 5.567618 l 0.327112,-0.317293 0.340547,0.3514 0.33228,0.342098 z m -40.255941,0.744141 0.127641,0.129708 -0.871782,0.857312 v 9.354468 l 0.515214,-0.499711 0.157613,0.16278 0.327112,-0.317293 v -8.017082 l 4.070036,4.070036 0.312642,-0.302824 0.348816,0.359151 0.348816,0.359668 -0.30179,0.292489 2.761588,2.761589 0.718303,-0.696082 z m 0.255798,11.082011 -0.999939,0.96945 v 5.440495 l 0.999939,-0.969967 z m 40.000143,5.091679 -0.999939,0.969966 v 6.746875 l 0.384472,-0.372587 0.3483,0.359152 0.267167,0.274918 z m -40.000143,1.742529 -0.999939,0.96945 v 5.244641 l 0.999939,-0.96945 z m 40.000143,6.399093 -0.999939,0.96945 v 7.199043 l 0.16278,-0.157613 0.343132,0.353984 0.344165,0.3545 -0.850077,0.824239 v 7.433138 l 0.16278,-0.157613 0.343649,0.353984 0.343648,0.3545 -0.850077,0.824239 v 7.478096 l 0.268717,-0.26045 0.348299,0.35915 h 5.17e-4 l 0.21239,0.21911 h 0.170016 z m -40.000143,0.238745 -0.428914,0.415995 0.177767,0.183451 -0.748792,0.726054 v 5.091679 l 0.515214,-0.499711 0.348299,0.359151 h 5.17e-4 l 0.135909,0.14056 v -0.245463 l -0.02119,-0.0217 0.02119,-0.02067 z m 0,6.842476 -0.999939,0.96945 v 4.640544 l 0.404627,-0.392224 0.340547,0.351399 0.254765,0.262517 z m 0,6.004285 -0.999939,0.96945 v 5.375899 l 0.06408,-0.06201 0.342098,0.35295 0.342615,0.352952 -0.748792,0.72605 v 5.34696 h 0.999939 z"
       style="fill:#06B6D4;baseline-shift:baseline;display:inline;overflow:visible;opacity:1;vector-effect:none;enable-background:accumulate;stop-color:#000000;stop-opacity:1"
       id="path259" />
    <path
       d="m 46.255535,99.314856 -15.021822,14.567584 0.684713,0.70384 15.021822,-14.56552 z"
       style="fill:#06B6D4;baseline-shift:baseline;display:inline;overflow:visible;vector-effect:none;enable-background:accumulate;stop-color:#000000;stop-opacity:1"
       id="path257" />
    <path
       d="m 46.596083,92.245004 -14.95671,14.504546 0.681612,0.70073 14.95671,-14.502477 z"
       style="fill:#06B6D4;baseline-shift:baseline;display:inline;overflow:visible;vector-effect:none;enable-background:accumulate;stop-color:#000000;stop-opacity:1"
       id="path255" />
    <path
       d="m 46.70667,86.102226 -15.298807,14.836304 0.697115,0.71675 15.298807,-14.834235 z"
       style="fill:#06B6D4;baseline-shift:baseline;display:inline;overflow:visible;vector-effect:none;enable-background:accumulate;stop-color:#000000;stop-opacity:1"
       id="path253" />
    <path
       d="M 46.762481,80.600753 43.694968,83.574732 43.346669,83.216097 43.185438,83.050733 31.175835,94.696534 31.863132,95.40295 46.940248,80.784204 Z"
       style="fill:#06B6D4;baseline-shift:baseline;display:inline;overflow:visible;vector-effect:none;enable-background:accumulate;stop-color:#000000;stop-opacity:1"
       id="path251" />
    <path
       d="m 46.029192,73.121623 -14.899865,14.449247 0.679028,0.697632 9.007719,-8.733834 -0.251148,-0.258899 -0.348816,-0.358634 5.892147,-5.713863 z"
       style="fill:#06B6D4;baseline-shift:baseline;display:inline;overflow:visible;vector-effect:none;enable-background:accumulate;stop-color:#000000;stop-opacity:1"
       id="path249" />
    <path
       d="m 46.70667,65.472478 -15.298807,14.835786 0.697115,0.716753 4.70979,-4.566647 -0.539502,-0.554488 10.589017,-10.268624 z"
       style="fill:#06B6D4;baseline-shift:baseline;display:inline;overflow:visible;vector-effect:none;enable-background:accumulate;stop-color:#000000;stop-opacity:1"
       id="path247" />
    <path
       d="M 46.360438,55.046757 31.169117,69.992615 31.8714,70.7042 47.063238,55.760409 Z"
       style="fill:#06B6D4;baseline-shift:baseline;display:inline;overflow:visible;vector-effect:none;enable-background:accumulate;stop-color:#000000;stop-opacity:1"
       id="path245" />
    <path
       d="m 51.574073,61.068095 -15.298807,14.835787 0.697632,0.716752 15.298807,-14.83372 z"
       style="fill:#06B6D4;baseline-shift:baseline;display:inline;overflow:visible;vector-effect:none;enable-background:accumulate;stop-color:#000000;stop-opacity:1"
       id="path243" />
    <path
       d="M 55.514918,64.081348 40.21611,78.917135 40.913226,79.634404 56.212033,64.800167 Z"
       style="fill:#06B6D4;baseline-shift:baseline;display:inline;overflow:visible;vector-effect:none;enable-background:accumulate;stop-color:#000000;stop-opacity:1"
       id="path241" />
    <path
       d="M 58.29666,68.022193 42.997853,82.85798 43.694968,83.574732 58.993775,68.741012 Z"
       style="fill:#06B6D4;baseline-shift:baseline;display:inline;overflow:visible;vector-effect:none;enable-background:accumulate;stop-color:#000000;stop-opacity:1"
       id="path239" />
    <path
       d="M 62.469016,71.498983 47.170208,86.33477 47.867323,87.052039 63.166131,72.217802 Z"
       style="fill:#06B6D4;baseline-shift:baseline;display:inline;overflow:visible;vector-effect:none;enable-background:accumulate;stop-color:#000000;stop-opacity:1"
       id="path237" />
    <path
       d="m 86.356963,64.313375 -15.021822,14.56707 0.684713,0.703833 15.021822,-14.56552 z"
       style="fill:#06B6D4;baseline-shift:baseline;display:inline;overflow:visible;vector-effect:none;enable-background:accumulate;stop-color:#000000;stop-opacity:1"
       id="path235" />
    <path
       d="m 86.518711,71.093323 -14.95671,14.504541 0.681612,0.700733 14.95671,-14.502474 z"
       style="fill:#06B6D4;baseline-shift:baseline;display:inline;overflow:visible;vector-effect:none;enable-background:accumulate;stop-color:#000000;stop-opacity:1"
       id="path233" />
    <path
       d="M 86.576071,79.148645 71.277264,93.984432 71.974379,94.701184 87.273186,79.866948 Z"
       style="fill:#06B6D4;baseline-shift:baseline;display:inline;overflow:visible;vector-effect:none;enable-background:accumulate;stop-color:#000000;stop-opacity:1"
       id="path231" />
    <path
       d="M 86.354379,87.956893 71.277264,102.57771 71.96456,103.28412 87.041676,88.665377 Z"
       style="fill:#06B6D4;baseline-shift:baseline;display:inline;overflow:visible;vector-effect:none;enable-background:accumulate;stop-color:#000000;stop-opacity:1"
       id="path229" />
    <path
       d="M 86.354379,96.765141 71.277264,111.38595 71.96456,112.09237 87.041676,97.473625 Z"
       style="fill:#06B6D4;baseline-shift:baseline;display:inline;overflow:visible;vector-effect:none;enable-background:accumulate;stop-color:#000000;stop-opacity:1"
       id="path227" />
    <path
       d="m 86.460316,105.51551 -15.298808,14.83631 0.697115,0.71675 15.298808,-14.83424 z"
       style="fill:#06B6D4;baseline-shift:baseline;display:inline;overflow:visible;vector-effect:none;enable-background:accumulate;stop-color:#000000;stop-opacity:1"
       id="path225" />
    <path
       d="m 91.129799,107.49214 -16.375745,15.88016 0.746208,0.7674 16.376261,-15.8781 z"
       style="fill:#06B6D4;baseline-shift:baseline;display:inline;overflow:visible;vector-effect:none;enable-background:accumulate;stop-color:#000000;stop-opacity:1"
       id="path223" />
    <path
       d="m 98.149525,107.56603 -18.646924,18.08262 0.850078,0.87385 18.646407,-18.08055 z"
       style="fill:#06B6D4;baseline-shift:baseline;display:inline;overflow:visible;vector-effect:none;enable-background:accumulate;stop-color:#000000;stop-opacity:1"
       id="path221" />
    <path
       d="m 128.68048,83.925098 -14.63063,16.672372 0.78341,0.68523 14.63115,-16.670305 z"
       style="fill:#06B6D4;baseline-shift:baseline;display:inline;overflow:visible;vector-effect:none;enable-background:accumulate;stop-color:#000000;stop-opacity:1"
       id="path219" />
    <path
       d="m 133.41507,90.738636 -14.38723,13.951084 0.65577,0.67438 14.38672,-13.949537 z"
       style="fill:#06B6D4;baseline-shift:baseline;display:inline;overflow:visible;vector-effect:none;enable-background:accumulate;stop-color:#000000;stop-opacity:1"
       id="path217" />
    <path
       d="m 136.47122,96.97133 -14.01982,13.59607 0.63872,0.65681 14.02033,-13.594005 z"
       style="fill:#06B6D4;baseline-shift:baseline;display:inline;overflow:visible;vector-effect:none;enable-background:accumulate;stop-color:#000000;stop-opacity:1"
       id="path215" />
    <path
       d="m 141.51277,102.0966 -15.29881,14.83579 0.69712,0.71675 15.2988,-14.83372 z"
       style="fill:#06B6D4;baseline-shift:baseline;display:inline;overflow:visible;vector-effect:none;enable-background:accumulate;stop-color:#000000;stop-opacity:1"
       id="path213" />
    <path
       d="m 149.67558,103.10326 -18.36219,17.80666 0.83664,0.86041 18.36219,-17.80408 z"
       style="fill:#06B6D4;baseline-shift:baseline;display:inline;overflow:visible;vector-effect:none;enable-background:accumulate;stop-color:#000000;stop-opacity:1"
       id="path211" />
    <path
       d="m 171.74038,85.989055 -14.57275,16.871325 0.79272,0.68264 14.57275,-16.869253 z"
       style="fill:#06B6D4;baseline-shift:baseline;display:inline;overflow:visible;vector-effect:none;enable-background:accumulate;stop-color:#000000;stop-opacity:1"
       id="path209" />
    <path
       d="m 176.51942,92.157154 -14.26631,13.834816 0.65009,0.66869 14.26631,-13.833263 z"
       style="fill:#06B6D4;baseline-shift:baseline;display:inline;overflow:visible;vector-effect:none;enable-background:accumulate;stop-color:#000000;stop-opacity:1"
       id="path207" />
    <path
       d="m 180.78479,99.026502 -14.15521,15.930298 0.74828,0.663 14.15572,-15.928223 z"
       style="fill:#06B6D4;baseline-shift:baseline;display:inline;overflow:visible;vector-effect:none;enable-background:accumulate;stop-color:#000000;stop-opacity:1"
       id="path205" />
  </g>
</svg>
